<?xml version="1.0" encoding="UTF-8"?>
<svg id="plus" xmlns="http://www.w3.org/2000/svg" viewBox="0 0 512 512">
  <g>
    <circle cx="256" cy="256" r="241.79" style="fill: #fff;"/>
    <g>
      <g>
        <path d="M141.38,208.28h20.44v10.22h-20.44v23.6h-10.97v-39.3c0-11.05,6.32-18.36,18.11-18.36h17.61v10.8h-17.53c-5.23,0-7.23,1.99-7.23,7.31v5.73Z" style="fill: #002855;"/>
        <path d="M227.46,213.02c0,16.78-11.88,30.08-28.17,30.08s-28.25-13.29-28.25-30.08,11.88-30,28.25-30,28.17,13.3,28.17,30M216.41,213.02c0-10.72-7.64-19.61-17.12-19.61s-17.2,8.89-17.2,19.61,7.64,19.69,17.2,19.69,17.12-8.89,17.12-19.69" style="fill: #002855;"/>
        <path d="M260.86,243.1c-15.7,0-27.92-13.21-27.92-30.08s12.22-30.08,27.92-30.08c13.05,0,22.68,7.4,26.26,19.19h-11.88c-2.58-5.24-7.73-9.14-14.38-9.14-9.47,0-16.95,9.14-16.95,20.02s7.48,20.11,16.95,20.11c6.56,0,11.8-4.07,14.38-9.31h11.8c-3.65,11.72-13.38,19.28-26.17,19.28" style="fill: #002855;"/>
        <path d="M299.99,237.28c-3.74-3.82-5.82-9.14-5.82-15.04v-37.81h10.97v37.97c0,6.23,3.74,9.97,9.89,9.97s9.97-3.74,9.97-9.97v-37.97h10.97v37.81c0,5.9-2.08,11.22-5.82,15.04-3.82,3.74-9.14,5.82-15.12,5.82s-11.22-2.08-15.04-5.82" style="fill: #002855;"/>
        <path d="M371.2,197.9c-2.83,2.58-4.74,6.4-4.74,15.37,0,8.06-1,17.2-8.64,23.52-4.49,3.74-10.64,5.4-18.2,5.32v-10.39c3.9,0,8.39-.75,11.3-3.16,2.74-2.33,4.57-6.07,4.57-15.29,0-11.05,2.58-18.2,8.56-23.35,4.15-3.74,10.22-5.48,17.53-5.57v10.47c-4.49,0-8.31,1.25-10.39,3.07" style="fill: #002855;"/>
      </g>
      <g>
        <path d="M202.95,308.29c0,11.55-8.56,20.77-20.94,20.77-6.32,0-11.88-2.91-15.37-7.48-3.57,4.57-8.97,7.48-15.37,7.48-12.3,0-20.86-9.22-20.86-20.77v-37.89h10.88v37.97c0,5.48,3.91,9.97,9.97,9.97s9.89-4.49,9.89-9.97v-37.97h11.05v37.97c0,5.48,3.91,9.97,9.81,9.97s9.97-4.49,9.97-9.97v-37.97h10.97v37.89Z" style="fill: #002855;"/>
        <polygon points="235.77 280.62 235.77 328.06 224.8 328.06 224.8 280.62 209.34 280.62 209.34 270.4 251.22 270.4 251.22 280.62 235.77 280.62" style="fill: #002855;"/>
        <polygon points="285.61 328.06 273.81 328.06 254.86 270.4 266.5 270.4 279.71 314.85 292.84 270.4 304.47 270.4 285.61 328.06" style="fill: #002855;"/>
      </g>
      <path d="M381.59,302.31v-31.92h-34.32c-14.19,0-25.7,11.51-25.7,25.7v31.92h34.32c14.19,0,25.7-11.51,25.7-25.7" style="fill: #00b2e3;"/>
    </g>
  </g>
  <rect x="-4.24" y="-4.24" width="520.48" height="520.48" style="fill: none;"/>
</svg>